<mxfile host="app.diagrams.net" agent="Mozilla/5.0 (Windows NT 10.0; Win64; x64) AppleWebKit/537.36 (KHTML, like Gecko) Chrome/127.0.0.0 Safari/537.36" version="24.7.7">
  <diagram id="PRBE9610Lkf8FKur8NPu" name="Strona-1">
    <mxGraphModel dx="2117" dy="522" grid="1" gridSize="10" guides="1" tooltips="1" connect="1" arrows="1" fold="1" page="1" pageScale="1" pageWidth="827" pageHeight="1169" math="0" shadow="0">
      <root>
        <mxCell id="0" />
        <mxCell id="1" parent="0" />
        <mxCell id="0fWZHqDm3kcnZc1s7iYu-1" value="" style="swimlane;html=1;childLayout=stackLayout;resizeParent=1;resizeParentMax=0;startSize=20;" parent="1" vertex="1">
          <mxGeometry x="-276" y="27" width="1666" height="1303" as="geometry" />
        </mxCell>
        <mxCell id="0fWZHqDm3kcnZc1s7iYu-12" value="" style="edgeStyle=orthogonalEdgeStyle;html=1;verticalAlign=bottom;endArrow=open;endSize=8;strokeColor=#ff0000;" parent="0fWZHqDm3kcnZc1s7iYu-1" source="0fWZHqDm3kcnZc1s7iYu-11" target="0fWZHqDm3kcnZc1s7iYu-15" edge="1">
          <mxGeometry relative="1" as="geometry">
            <mxPoint x="146" y="440" as="targetPoint" />
          </mxGeometry>
        </mxCell>
        <mxCell id="0fWZHqDm3kcnZc1s7iYu-26" value="Jeszcze nie zdecydowano " style="edgeStyle=orthogonalEdgeStyle;html=1;align=left;verticalAlign=bottom;endArrow=open;endSize=8;strokeColor=#ff0000;exitX=0;exitY=0.5;exitDx=0;exitDy=0;entryX=0.5;entryY=0;entryDx=0;entryDy=0;" parent="0fWZHqDm3kcnZc1s7iYu-1" source="0fWZHqDm3kcnZc1s7iYu-20" target="0fWZHqDm3kcnZc1s7iYu-17" edge="1">
          <mxGeometry x="-0.1931" y="-8" relative="1" as="geometry">
            <mxPoint x="376" y="500" as="targetPoint" />
            <mxPoint x="426" y="600" as="sourcePoint" />
            <mxPoint x="1" as="offset" />
          </mxGeometry>
        </mxCell>
        <mxCell id="0fWZHqDm3kcnZc1s7iYu-21" value="Urlop jest zaakceptowany" style="edgeStyle=orthogonalEdgeStyle;html=1;align=left;verticalAlign=bottom;endArrow=open;endSize=8;strokeColor=#ff0000;" parent="0fWZHqDm3kcnZc1s7iYu-1" source="0fWZHqDm3kcnZc1s7iYu-20" target="0fWZHqDm3kcnZc1s7iYu-28" edge="1">
          <mxGeometry x="-1" relative="1" as="geometry">
            <mxPoint x="536" y="570" as="targetPoint" />
            <Array as="points">
              <mxPoint x="536" y="510" />
              <mxPoint x="536" y="590" />
              <mxPoint x="206" y="590" />
            </Array>
          </mxGeometry>
        </mxCell>
        <mxCell id="0fWZHqDm3kcnZc1s7iYu-27" value="Modyfikuj lub usuń urlop" style="edgeStyle=orthogonalEdgeStyle;html=1;align=left;verticalAlign=bottom;endArrow=open;endSize=8;strokeColor=#ff0000;exitX=1;exitY=0.5;exitDx=0;exitDy=0;entryX=0.25;entryY=1;entryDx=0;entryDy=0;" parent="0fWZHqDm3kcnZc1s7iYu-1" source="0fWZHqDm3kcnZc1s7iYu-17" target="0fWZHqDm3kcnZc1s7iYu-15" edge="1">
          <mxGeometry x="-0.646" y="13" relative="1" as="geometry">
            <mxPoint x="223" y="410" as="targetPoint" />
            <mxPoint x="496" y="570" as="sourcePoint" />
            <Array as="points">
              <mxPoint x="223" y="520" />
              <mxPoint x="223" y="400" />
              <mxPoint x="451" y="400" />
            </Array>
            <mxPoint as="offset" />
          </mxGeometry>
        </mxCell>
        <mxCell id="0fWZHqDm3kcnZc1s7iYu-4" value="Pracownik" style="swimlane;html=1;startSize=20;" parent="0fWZHqDm3kcnZc1s7iYu-1" vertex="1">
          <mxGeometry y="20" width="306" height="1283" as="geometry" />
        </mxCell>
        <mxCell id="0fWZHqDm3kcnZc1s7iYu-7" value="" style="ellipse;html=1;shape=startState;fillColor=#000000;strokeColor=#ff0000;" parent="0fWZHqDm3kcnZc1s7iYu-4" vertex="1">
          <mxGeometry x="126" y="20" width="30" height="30" as="geometry" />
        </mxCell>
        <mxCell id="0fWZHqDm3kcnZc1s7iYu-8" value="" style="edgeStyle=orthogonalEdgeStyle;html=1;verticalAlign=bottom;endArrow=open;endSize=8;strokeColor=#ff0000;" parent="0fWZHqDm3kcnZc1s7iYu-4" source="0fWZHqDm3kcnZc1s7iYu-7" edge="1">
          <mxGeometry relative="1" as="geometry">
            <mxPoint x="141" y="90" as="targetPoint" />
          </mxGeometry>
        </mxCell>
        <mxCell id="0fWZHqDm3kcnZc1s7iYu-9" value="Zaznacza proponowany okres urlopu" style="rounded=1;whiteSpace=wrap;html=1;arcSize=40;fontColor=#000000;fillColor=#ffffc0;strokeColor=#ff0000;" parent="0fWZHqDm3kcnZc1s7iYu-4" vertex="1">
          <mxGeometry x="66" y="90" width="120" height="40" as="geometry" />
        </mxCell>
        <mxCell id="0fWZHqDm3kcnZc1s7iYu-11" value="Przesyła do akceptacji" style="rounded=1;whiteSpace=wrap;html=1;arcSize=40;fontColor=#000000;fillColor=#ffffc0;strokeColor=#ff0000;" parent="0fWZHqDm3kcnZc1s7iYu-4" vertex="1">
          <mxGeometry x="86" y="340" width="120" height="40" as="geometry" />
        </mxCell>
        <mxCell id="0fWZHqDm3kcnZc1s7iYu-17" value="Condition" style="rhombus;whiteSpace=wrap;html=1;fillColor=#ffffc0;strokeColor=#ff0000;" parent="0fWZHqDm3kcnZc1s7iYu-4" vertex="1">
          <mxGeometry x="133" y="480" width="80" height="40" as="geometry" />
        </mxCell>
        <mxCell id="0fWZHqDm3kcnZc1s7iYu-19" value="Bez zmian" style="edgeStyle=orthogonalEdgeStyle;html=1;align=left;verticalAlign=top;endArrow=open;endSize=8;strokeColor=#ff0000;exitX=0;exitY=0.5;exitDx=0;exitDy=0;entryX=0.567;entryY=0.467;entryDx=0;entryDy=0;entryPerimeter=0;" parent="0fWZHqDm3kcnZc1s7iYu-4" source="0fWZHqDm3kcnZc1s7iYu-17" target="0fWZHqDm3kcnZc1s7iYu-31" edge="1">
          <mxGeometry x="-0.2" y="10" relative="1" as="geometry">
            <mxPoint x="36" y="580" as="targetPoint" />
            <mxPoint as="offset" />
          </mxGeometry>
        </mxCell>
        <mxCell id="0fWZHqDm3kcnZc1s7iYu-28" value="Nie można modyfikować i usunąć urlopu" style="rounded=1;whiteSpace=wrap;html=1;arcSize=40;fontColor=#000000;fillColor=#ffffc0;strokeColor=#ff0000;" parent="0fWZHqDm3kcnZc1s7iYu-4" vertex="1">
          <mxGeometry x="146" y="575" width="120" height="40" as="geometry" />
        </mxCell>
        <mxCell id="0fWZHqDm3kcnZc1s7iYu-30" value="" style="shape=umlDestroy;whiteSpace=wrap;html=1;strokeWidth=3;" parent="0fWZHqDm3kcnZc1s7iYu-4" vertex="1">
          <mxGeometry x="266" y="690" width="30" height="30" as="geometry" />
        </mxCell>
        <mxCell id="0fWZHqDm3kcnZc1s7iYu-29" value="" style="edgeStyle=orthogonalEdgeStyle;html=1;verticalAlign=bottom;endArrow=open;endSize=8;strokeColor=#ff0000;exitX=1;exitY=0.5;exitDx=0;exitDy=0;entryX=0.367;entryY=0.3;entryDx=0;entryDy=0;entryPerimeter=0;" parent="0fWZHqDm3kcnZc1s7iYu-4" source="0fWZHqDm3kcnZc1s7iYu-28" target="0fWZHqDm3kcnZc1s7iYu-30" edge="1">
          <mxGeometry relative="1" as="geometry">
            <mxPoint x="276" y="680" as="targetPoint" />
          </mxGeometry>
        </mxCell>
        <mxCell id="0fWZHqDm3kcnZc1s7iYu-31" value="" style="shape=umlDestroy;whiteSpace=wrap;html=1;strokeWidth=3;" parent="0fWZHqDm3kcnZc1s7iYu-4" vertex="1">
          <mxGeometry x="26" y="580" width="30" height="30" as="geometry" />
        </mxCell>
        <mxCell id="0fWZHqDm3kcnZc1s7iYu-37" value="&lt;div&gt;Popraw wybrany urlop uwzględnij ile masz urlopu&lt;br&gt;&lt;/div&gt;" style="rounded=1;whiteSpace=wrap;html=1;arcSize=40;fontColor=#000000;fillColor=#ffffc0;strokeColor=#ff0000;" parent="0fWZHqDm3kcnZc1s7iYu-4" vertex="1">
          <mxGeometry x="105" y="160" width="136" height="40" as="geometry" />
        </mxCell>
        <mxCell id="0fWZHqDm3kcnZc1s7iYu-38" value="" style="edgeStyle=orthogonalEdgeStyle;html=1;verticalAlign=bottom;endArrow=open;endSize=8;strokeColor=#ff0000;" parent="0fWZHqDm3kcnZc1s7iYu-4" source="0fWZHqDm3kcnZc1s7iYu-37" target="0fWZHqDm3kcnZc1s7iYu-39" edge="1">
          <mxGeometry relative="1" as="geometry">
            <mxPoint x="156" y="220" as="targetPoint" />
            <Array as="points" />
          </mxGeometry>
        </mxCell>
        <mxCell id="0fWZHqDm3kcnZc1s7iYu-39" value="Poprawia proponowany urlop" style="rounded=1;whiteSpace=wrap;html=1;arcSize=40;fontColor=#000000;fillColor=#ffffc0;strokeColor=#ff0000;" parent="0fWZHqDm3kcnZc1s7iYu-4" vertex="1">
          <mxGeometry x="13" y="240" width="120" height="40" as="geometry" />
        </mxCell>
        <mxCell id="0fWZHqDm3kcnZc1s7iYu-40" value="" style="edgeStyle=orthogonalEdgeStyle;html=1;verticalAlign=bottom;endArrow=open;endSize=8;strokeColor=#ff0000;" parent="0fWZHqDm3kcnZc1s7iYu-4" source="0fWZHqDm3kcnZc1s7iYu-39" target="0fWZHqDm3kcnZc1s7iYu-11" edge="1">
          <mxGeometry relative="1" as="geometry">
            <mxPoint x="193" y="370" as="targetPoint" />
          </mxGeometry>
        </mxCell>
        <mxCell id="0fWZHqDm3kcnZc1s7iYu-43" value="Wyświetla ilość pozostałych dni urlopu" style="rounded=1;whiteSpace=wrap;html=1;arcSize=40;fontColor=#000000;fillColor=#ffffc0;strokeColor=#ff0000;" parent="0fWZHqDm3kcnZc1s7iYu-4" vertex="1">
          <mxGeometry x="186" y="230" width="120" height="50" as="geometry" />
        </mxCell>
        <mxCell id="0fWZHqDm3kcnZc1s7iYu-45" value="" style="ellipse;html=1;shape=endState;fillColor=#000000;strokeColor=#ff0000;" parent="0fWZHqDm3kcnZc1s7iYu-4" vertex="1">
          <mxGeometry x="231" y="315" width="30" height="30" as="geometry" />
        </mxCell>
        <mxCell id="0fWZHqDm3kcnZc1s7iYu-47" value="" style="edgeStyle=orthogonalEdgeStyle;html=1;verticalAlign=bottom;endArrow=open;endSize=8;strokeColor=#ff0000;exitX=0.567;exitY=1;exitDx=0;exitDy=0;exitPerimeter=0;" parent="0fWZHqDm3kcnZc1s7iYu-4" source="0fWZHqDm3kcnZc1s7iYu-43" target="0fWZHqDm3kcnZc1s7iYu-45" edge="1">
          <mxGeometry relative="1" as="geometry">
            <mxPoint x="151" y="100" as="targetPoint" />
            <mxPoint x="151" y="60" as="sourcePoint" />
          </mxGeometry>
        </mxCell>
        <mxCell id="0fWZHqDm3kcnZc1s7iYu-57" value="Otrzymuje e-mail o odrzuceniu urlopu&amp;nbsp; " style="rounded=1;whiteSpace=wrap;html=1;arcSize=40;fontColor=#000000;fillColor=#ffffc0;strokeColor=#ff0000;" parent="0fWZHqDm3kcnZc1s7iYu-4" vertex="1">
          <mxGeometry x="156" y="750" width="120" height="40" as="geometry" />
        </mxCell>
        <mxCell id="EO6jBVs2s-Wqm0ateVeM-5" value="Anulowano urlop" style="rounded=1;whiteSpace=wrap;html=1;arcSize=40;fontColor=#000000;fillColor=#ffffc0;strokeColor=#ff0000;" parent="0fWZHqDm3kcnZc1s7iYu-4" vertex="1">
          <mxGeometry x="146" y="850" width="120" height="40" as="geometry" />
        </mxCell>
        <mxCell id="EO6jBVs2s-Wqm0ateVeM-6" value="Zaakceptowano urlop" style="rounded=1;whiteSpace=wrap;html=1;arcSize=40;fontColor=#000000;fillColor=#ffffc0;strokeColor=#ff0000;" parent="0fWZHqDm3kcnZc1s7iYu-4" vertex="1">
          <mxGeometry x="156" y="930" width="120" height="40" as="geometry" />
        </mxCell>
        <mxCell id="EO6jBVs2s-Wqm0ateVeM-7" value="" style="edgeStyle=orthogonalEdgeStyle;html=1;verticalAlign=bottom;endArrow=open;endSize=8;strokeColor=#ff0000;" parent="0fWZHqDm3kcnZc1s7iYu-4" source="EO6jBVs2s-Wqm0ateVeM-6" edge="1">
          <mxGeometry relative="1" as="geometry">
            <mxPoint x="216" y="1010" as="targetPoint" />
            <Array as="points">
              <mxPoint x="216" y="990" />
              <mxPoint x="216" y="990" />
            </Array>
          </mxGeometry>
        </mxCell>
        <mxCell id="EO6jBVs2s-Wqm0ateVeM-11" value="" style="ellipse;html=1;shape=endState;fillColor=#000000;strokeColor=#ff0000;" parent="0fWZHqDm3kcnZc1s7iYu-4" vertex="1">
          <mxGeometry x="66" y="760" width="30" height="30" as="geometry" />
        </mxCell>
        <mxCell id="EO6jBVs2s-Wqm0ateVeM-13" value="" style="ellipse;html=1;shape=endState;fillColor=#000000;strokeColor=#ff0000;" parent="0fWZHqDm3kcnZc1s7iYu-4" vertex="1">
          <mxGeometry x="66" y="850" width="30" height="30" as="geometry" />
        </mxCell>
        <mxCell id="EO6jBVs2s-Wqm0ateVeM-14" value="" style="ellipse;html=1;shape=endState;fillColor=#000000;strokeColor=#ff0000;" parent="0fWZHqDm3kcnZc1s7iYu-4" vertex="1">
          <mxGeometry x="206" y="1010" width="30" height="30" as="geometry" />
        </mxCell>
        <mxCell id="EO6jBVs2s-Wqm0ateVeM-37" value="Otrzymuje natychmiast pieniądze na konto" style="rounded=1;whiteSpace=wrap;html=1;arcSize=40;fontColor=#000000;fillColor=#ffffc0;strokeColor=#ff0000;" parent="0fWZHqDm3kcnZc1s7iYu-4" vertex="1">
          <mxGeometry x="166" y="1075" width="125" height="47" as="geometry" />
        </mxCell>
        <mxCell id="EO6jBVs2s-Wqm0ateVeM-38" value="" style="edgeStyle=orthogonalEdgeStyle;html=1;verticalAlign=bottom;endArrow=open;endSize=8;strokeColor=#ff0000;" parent="0fWZHqDm3kcnZc1s7iYu-4" source="EO6jBVs2s-Wqm0ateVeM-37" edge="1">
          <mxGeometry relative="1" as="geometry">
            <mxPoint x="229" y="1173" as="targetPoint" />
          </mxGeometry>
        </mxCell>
        <mxCell id="EO6jBVs2s-Wqm0ateVeM-39" value="Otrzymuje pieniądze następnego dnia" style="rounded=1;whiteSpace=wrap;html=1;arcSize=40;fontColor=#000000;fillColor=#ffffc0;strokeColor=#ff0000;" parent="0fWZHqDm3kcnZc1s7iYu-4" vertex="1">
          <mxGeometry x="6" y="1075" width="120" height="40" as="geometry" />
        </mxCell>
        <mxCell id="EO6jBVs2s-Wqm0ateVeM-40" value="" style="edgeStyle=orthogonalEdgeStyle;html=1;verticalAlign=bottom;endArrow=open;endSize=8;strokeColor=#ff0000;" parent="0fWZHqDm3kcnZc1s7iYu-4" source="EO6jBVs2s-Wqm0ateVeM-39" edge="1">
          <mxGeometry relative="1" as="geometry">
            <mxPoint x="66" y="1175" as="targetPoint" />
          </mxGeometry>
        </mxCell>
        <mxCell id="EO6jBVs2s-Wqm0ateVeM-41" value="" style="ellipse;html=1;shape=endState;fillColor=#000000;strokeColor=#ff0000;" parent="0fWZHqDm3kcnZc1s7iYu-4" vertex="1">
          <mxGeometry x="214" y="1173" width="30" height="30" as="geometry" />
        </mxCell>
        <mxCell id="EO6jBVs2s-Wqm0ateVeM-42" value="" style="ellipse;html=1;shape=endState;fillColor=#000000;strokeColor=#ff0000;" parent="0fWZHqDm3kcnZc1s7iYu-4" vertex="1">
          <mxGeometry x="51" y="1173" width="30" height="30" as="geometry" />
        </mxCell>
        <mxCell id="0fWZHqDm3kcnZc1s7iYu-2" value="System" style="swimlane;html=1;startSize=20;" parent="0fWZHqDm3kcnZc1s7iYu-1" vertex="1">
          <mxGeometry x="306" y="20" width="330" height="1283" as="geometry" />
        </mxCell>
        <mxCell id="0fWZHqDm3kcnZc1s7iYu-15" value="Generuje e-mail i przesyła go do kierownika" style="rounded=1;whiteSpace=wrap;html=1;arcSize=40;fontColor=#000000;fillColor=#ffffc0;strokeColor=#ff0000;" parent="0fWZHqDm3kcnZc1s7iYu-2" vertex="1">
          <mxGeometry x="115" y="310" width="120" height="40" as="geometry" />
        </mxCell>
        <mxCell id="0fWZHqDm3kcnZc1s7iYu-20" value="Condition" style="rhombus;whiteSpace=wrap;html=1;fillColor=#ffffc0;strokeColor=#ff0000;" parent="0fWZHqDm3kcnZc1s7iYu-2" vertex="1">
          <mxGeometry x="96" y="470" width="80" height="40" as="geometry" />
        </mxCell>
        <mxCell id="0fWZHqDm3kcnZc1s7iYu-24" value="Sprawdza czy zdecydowano&amp;nbsp; o urlopie" style="rounded=1;whiteSpace=wrap;html=1;arcSize=40;fontColor=#000000;fillColor=#ffffc0;strokeColor=#ff0000;" parent="0fWZHqDm3kcnZc1s7iYu-2" vertex="1">
          <mxGeometry x="140" y="400" width="120" height="40" as="geometry" />
        </mxCell>
        <mxCell id="0fWZHqDm3kcnZc1s7iYu-25" value="" style="edgeStyle=orthogonalEdgeStyle;html=1;verticalAlign=bottom;endArrow=open;endSize=8;strokeColor=#ff0000;entryX=0.5;entryY=0;entryDx=0;entryDy=0;" parent="0fWZHqDm3kcnZc1s7iYu-2" source="0fWZHqDm3kcnZc1s7iYu-24" target="0fWZHqDm3kcnZc1s7iYu-20" edge="1">
          <mxGeometry relative="1" as="geometry">
            <mxPoint x="196" y="470" as="targetPoint" />
            <Array as="points" />
          </mxGeometry>
        </mxCell>
        <mxCell id="0fWZHqDm3kcnZc1s7iYu-32" value="Weryfikuje ile dni urlopu bieżącego i zaległego zostało pracownikowi " style="rounded=1;whiteSpace=wrap;html=1;arcSize=40;fontColor=#000000;fillColor=#ffffc0;strokeColor=#ff0000;" parent="0fWZHqDm3kcnZc1s7iYu-2" vertex="1">
          <mxGeometry x="90" y="50" width="120" height="70" as="geometry" />
        </mxCell>
        <mxCell id="0fWZHqDm3kcnZc1s7iYu-33" value="" style="edgeStyle=orthogonalEdgeStyle;html=1;verticalAlign=bottom;endArrow=open;endSize=8;strokeColor=#ff0000;" parent="0fWZHqDm3kcnZc1s7iYu-2" source="0fWZHqDm3kcnZc1s7iYu-32" edge="1">
          <mxGeometry relative="1" as="geometry">
            <mxPoint x="150" y="150" as="targetPoint" />
          </mxGeometry>
        </mxCell>
        <mxCell id="0fWZHqDm3kcnZc1s7iYu-34" value="Condition" style="rhombus;whiteSpace=wrap;html=1;fillColor=#ffffc0;strokeColor=#ff0000;" parent="0fWZHqDm3kcnZc1s7iYu-2" vertex="1">
          <mxGeometry x="110" y="150" width="80" height="40" as="geometry" />
        </mxCell>
        <mxCell id="0fWZHqDm3kcnZc1s7iYu-55" value="Generuje e-mail o odrzuceniu urlopu" style="rounded=1;whiteSpace=wrap;html=1;arcSize=40;fontColor=#000000;fillColor=#ffffc0;strokeColor=#ff0000;" parent="0fWZHqDm3kcnZc1s7iYu-2" vertex="1">
          <mxGeometry x="170" y="630" width="120" height="40" as="geometry" />
        </mxCell>
        <mxCell id="0fWZHqDm3kcnZc1s7iYu-62" value="Condition" style="rhombus;whiteSpace=wrap;html=1;fillColor=#ffffc0;strokeColor=#ff0000;" parent="0fWZHqDm3kcnZc1s7iYu-2" vertex="1">
          <mxGeometry x="115" y="810" width="80" height="40" as="geometry" />
        </mxCell>
        <mxCell id="EO6jBVs2s-Wqm0ateVeM-1" value="Sprawdzenie czy mniej niż dzień przed rozpoczęciem urlopu" style="rounded=1;whiteSpace=wrap;html=1;arcSize=40;fontColor=#000000;fillColor=#ffffc0;strokeColor=#ff0000;" parent="0fWZHqDm3kcnZc1s7iYu-2" vertex="1">
          <mxGeometry x="140" y="710" width="140" height="50" as="geometry" />
        </mxCell>
        <mxCell id="EO6jBVs2s-Wqm0ateVeM-2" value="" style="edgeStyle=orthogonalEdgeStyle;html=1;verticalAlign=bottom;endArrow=open;endSize=8;strokeColor=#ff0000;entryX=0.5;entryY=0;entryDx=0;entryDy=0;" parent="0fWZHqDm3kcnZc1s7iYu-2" source="EO6jBVs2s-Wqm0ateVeM-1" target="0fWZHqDm3kcnZc1s7iYu-62" edge="1">
          <mxGeometry relative="1" as="geometry">
            <mxPoint x="200" y="820" as="targetPoint" />
          </mxGeometry>
        </mxCell>
        <mxCell id="0fWZHqDm3kcnZc1s7iYu-3" value="Kierownik" style="swimlane;html=1;startSize=20;" parent="0fWZHqDm3kcnZc1s7iYu-1" vertex="1">
          <mxGeometry x="636" y="20" width="300" height="1283" as="geometry" />
        </mxCell>
        <mxCell id="0fWZHqDm3kcnZc1s7iYu-13" value="Otrzymuje e-mail że w systemie czeka urlop do akceptacji" style="rounded=1;whiteSpace=wrap;html=1;arcSize=40;fontColor=#000000;fillColor=#ffffc0;strokeColor=#ff0000;" parent="0fWZHqDm3kcnZc1s7iYu-3" vertex="1">
          <mxGeometry x="80" y="100" width="140" height="40" as="geometry" />
        </mxCell>
        <mxCell id="0fWZHqDm3kcnZc1s7iYu-14" value="" style="edgeStyle=orthogonalEdgeStyle;html=1;verticalAlign=bottom;endArrow=open;endSize=8;strokeColor=#ff0000;" parent="0fWZHqDm3kcnZc1s7iYu-3" source="0fWZHqDm3kcnZc1s7iYu-13" edge="1">
          <mxGeometry relative="1" as="geometry">
            <mxPoint x="140" y="200" as="targetPoint" />
          </mxGeometry>
        </mxCell>
        <mxCell id="0fWZHqDm3kcnZc1s7iYu-51" value="Condition" style="rhombus;whiteSpace=wrap;html=1;fillColor=#ffffc0;strokeColor=#ff0000;" parent="0fWZHqDm3kcnZc1s7iYu-3" vertex="1">
          <mxGeometry x="100" y="200" width="80" height="40" as="geometry" />
        </mxCell>
        <mxCell id="0fWZHqDm3kcnZc1s7iYu-52" value="Akceptuje urlop" style="edgeStyle=orthogonalEdgeStyle;html=1;align=left;verticalAlign=bottom;endArrow=open;endSize=8;strokeColor=#ff0000;" parent="0fWZHqDm3kcnZc1s7iYu-3" source="0fWZHqDm3kcnZc1s7iYu-51" target="0fWZHqDm3kcnZc1s7iYu-59" edge="1">
          <mxGeometry x="-1" relative="1" as="geometry">
            <mxPoint x="280" y="220" as="targetPoint" />
            <Array as="points">
              <mxPoint x="210" y="220" />
              <mxPoint x="210" y="455" />
              <mxPoint x="130" y="455" />
            </Array>
          </mxGeometry>
        </mxCell>
        <mxCell id="0fWZHqDm3kcnZc1s7iYu-53" value="Odrzuca urlop" style="edgeStyle=orthogonalEdgeStyle;html=1;align=left;verticalAlign=top;endArrow=open;endSize=8;strokeColor=#ff0000;exitX=0;exitY=0.5;exitDx=0;exitDy=0;" parent="0fWZHqDm3kcnZc1s7iYu-3" source="0fWZHqDm3kcnZc1s7iYu-51" edge="1">
          <mxGeometry x="-0.1111" y="10" relative="1" as="geometry">
            <mxPoint x="-50" y="630" as="targetPoint" />
            <Array as="points">
              <mxPoint x="40" y="220" />
              <mxPoint x="40" y="590" />
              <mxPoint x="-50" y="590" />
            </Array>
            <mxPoint as="offset" />
          </mxGeometry>
        </mxCell>
        <mxCell id="0fWZHqDm3kcnZc1s7iYu-59" value="Condition" style="rhombus;whiteSpace=wrap;html=1;fillColor=#ffffc0;strokeColor=#ff0000;" parent="0fWZHqDm3kcnZc1s7iYu-3" vertex="1">
          <mxGeometry x="90" y="670" width="80" height="40" as="geometry" />
        </mxCell>
        <mxCell id="EO6jBVs2s-Wqm0ateVeM-3" value="Nie można anulować urlopu" style="rounded=1;whiteSpace=wrap;html=1;arcSize=40;fontColor=#000000;fillColor=#ffffc0;strokeColor=#ff0000;" parent="0fWZHqDm3kcnZc1s7iYu-3" vertex="1">
          <mxGeometry x="150" y="870" width="120" height="40" as="geometry" />
        </mxCell>
        <mxCell id="EO6jBVs2s-Wqm0ateVeM-9" value="" style="shape=umlDestroy;whiteSpace=wrap;html=1;strokeWidth=3;" parent="0fWZHqDm3kcnZc1s7iYu-3" vertex="1">
          <mxGeometry x="190" y="970" width="30" height="30" as="geometry" />
        </mxCell>
        <mxCell id="EO6jBVs2s-Wqm0ateVeM-8" value="" style="edgeStyle=orthogonalEdgeStyle;html=1;verticalAlign=bottom;endArrow=open;endSize=8;strokeColor=#ff0000;exitX=0.5;exitY=1;exitDx=0;exitDy=0;" parent="0fWZHqDm3kcnZc1s7iYu-3" source="EO6jBVs2s-Wqm0ateVeM-3" edge="1">
          <mxGeometry relative="1" as="geometry">
            <mxPoint x="210" y="980" as="targetPoint" />
            <mxPoint x="-410" y="980" as="sourcePoint" />
            <Array as="points">
              <mxPoint x="200" y="910" />
              <mxPoint x="200" y="980" />
            </Array>
          </mxGeometry>
        </mxCell>
        <mxCell id="0fWZHqDm3kcnZc1s7iYu-5" value="Pracownik kadr i płac" style="swimlane;html=1;startSize=20;" parent="0fWZHqDm3kcnZc1s7iYu-1" vertex="1">
          <mxGeometry x="936" y="20" width="260" height="1283" as="geometry" />
        </mxCell>
        <mxCell id="EO6jBVs2s-Wqm0ateVeM-15" value="Wysyła zestawienie o urlopach wszystkich pracowników" style="rounded=1;whiteSpace=wrap;html=1;arcSize=40;fontColor=#000000;fillColor=#ffffc0;strokeColor=#ff0000;" parent="0fWZHqDm3kcnZc1s7iYu-5" vertex="1">
          <mxGeometry x="70" y="30" width="130" height="50" as="geometry" />
        </mxCell>
        <mxCell id="EO6jBVs2s-Wqm0ateVeM-26" value="Otrzymuje przeliczone wartości wynagrodzeń" style="rounded=1;whiteSpace=wrap;html=1;arcSize=40;fontColor=#000000;fillColor=#ffffc0;strokeColor=#ff0000;" parent="0fWZHqDm3kcnZc1s7iYu-5" vertex="1">
          <mxGeometry x="75" y="370" width="125" height="50" as="geometry" />
        </mxCell>
        <mxCell id="EO6jBVs2s-Wqm0ateVeM-27" value="" style="edgeStyle=orthogonalEdgeStyle;html=1;verticalAlign=bottom;endArrow=open;endSize=8;strokeColor=#ff0000;" parent="0fWZHqDm3kcnZc1s7iYu-5" source="EO6jBVs2s-Wqm0ateVeM-26" edge="1">
          <mxGeometry relative="1" as="geometry">
            <mxPoint x="135" y="470" as="targetPoint" />
          </mxGeometry>
        </mxCell>
        <mxCell id="EO6jBVs2s-Wqm0ateVeM-28" value="Wykonuje przelewy na konta bankowe pracowników" style="rounded=1;whiteSpace=wrap;html=1;arcSize=40;fontColor=#000000;fillColor=#ffffc0;strokeColor=#ff0000;" parent="0fWZHqDm3kcnZc1s7iYu-5" vertex="1">
          <mxGeometry x="90" y="470" width="120" height="50" as="geometry" />
        </mxCell>
        <mxCell id="0fWZHqDm3kcnZc1s7iYu-6" value="Biuro rachunkowe " style="swimlane;html=1;startSize=20;" parent="0fWZHqDm3kcnZc1s7iYu-1" vertex="1">
          <mxGeometry x="1196" y="20" width="210" height="1283" as="geometry" />
        </mxCell>
        <mxCell id="EO6jBVs2s-Wqm0ateVeM-20" value="Otrzymuje zestawienie" style="rounded=1;whiteSpace=wrap;html=1;arcSize=40;fontColor=#000000;fillColor=#ffffc0;strokeColor=#ff0000;" parent="0fWZHqDm3kcnZc1s7iYu-6" vertex="1">
          <mxGeometry x="45" y="35" width="120" height="40" as="geometry" />
        </mxCell>
        <mxCell id="EO6jBVs2s-Wqm0ateVeM-21" value="" style="edgeStyle=orthogonalEdgeStyle;html=1;verticalAlign=bottom;endArrow=open;endSize=8;strokeColor=#ff0000;entryX=0.5;entryY=0;entryDx=0;entryDy=0;" parent="0fWZHqDm3kcnZc1s7iYu-6" source="EO6jBVs2s-Wqm0ateVeM-20" target="EO6jBVs2s-Wqm0ateVeM-22" edge="1">
          <mxGeometry relative="1" as="geometry">
            <mxPoint x="105" y="135" as="targetPoint" />
          </mxGeometry>
        </mxCell>
        <mxCell id="EO6jBVs2s-Wqm0ateVeM-22" value="Ustala wysokość wynagrodzeń" style="rounded=1;whiteSpace=wrap;html=1;arcSize=40;fontColor=#000000;fillColor=#ffffc0;strokeColor=#ff0000;" parent="0fWZHqDm3kcnZc1s7iYu-6" vertex="1">
          <mxGeometry x="50" y="140" width="120" height="40" as="geometry" />
        </mxCell>
        <mxCell id="EO6jBVs2s-Wqm0ateVeM-23" value="" style="edgeStyle=orthogonalEdgeStyle;html=1;verticalAlign=bottom;endArrow=open;endSize=8;strokeColor=#ff0000;" parent="0fWZHqDm3kcnZc1s7iYu-6" source="EO6jBVs2s-Wqm0ateVeM-22" edge="1">
          <mxGeometry relative="1" as="geometry">
            <mxPoint x="110" y="240" as="targetPoint" />
          </mxGeometry>
        </mxCell>
        <mxCell id="EO6jBVs2s-Wqm0ateVeM-24" value="Przesyła wysokość wynagrodzeń do pracownika kadr i płac" style="rounded=1;whiteSpace=wrap;html=1;arcSize=40;fontColor=#000000;fillColor=#ffffc0;strokeColor=#ff0000;" parent="0fWZHqDm3kcnZc1s7iYu-6" vertex="1">
          <mxGeometry x="45" y="240" width="135" height="60" as="geometry" />
        </mxCell>
        <mxCell id="0fWZHqDm3kcnZc1s7iYu-16" value="" style="edgeStyle=orthogonalEdgeStyle;html=1;verticalAlign=bottom;endArrow=open;endSize=8;strokeColor=#ff0000;entryX=0;entryY=0.5;entryDx=0;entryDy=0;" parent="0fWZHqDm3kcnZc1s7iYu-1" source="0fWZHqDm3kcnZc1s7iYu-15" target="0fWZHqDm3kcnZc1s7iYu-13" edge="1">
          <mxGeometry relative="1" as="geometry">
            <mxPoint x="455" y="270" as="targetPoint" />
          </mxGeometry>
        </mxCell>
        <mxCell id="0fWZHqDm3kcnZc1s7iYu-10" value="" style="edgeStyle=orthogonalEdgeStyle;html=1;verticalAlign=bottom;endArrow=open;endSize=8;strokeColor=#ff0000;entryX=0;entryY=0.5;entryDx=0;entryDy=0;" parent="0fWZHqDm3kcnZc1s7iYu-1" source="0fWZHqDm3kcnZc1s7iYu-9" target="0fWZHqDm3kcnZc1s7iYu-32" edge="1">
          <mxGeometry relative="1" as="geometry">
            <mxPoint x="126" y="200" as="targetPoint" />
          </mxGeometry>
        </mxCell>
        <mxCell id="0fWZHqDm3kcnZc1s7iYu-36" value="Jeśli przekroczył ilość dni&amp;nbsp; urlopu" style="edgeStyle=orthogonalEdgeStyle;html=1;align=left;verticalAlign=top;endArrow=open;endSize=8;strokeColor=#ff0000;exitX=0;exitY=0.5;exitDx=0;exitDy=0;entryX=1;entryY=0.5;entryDx=0;entryDy=0;" parent="0fWZHqDm3kcnZc1s7iYu-1" source="0fWZHqDm3kcnZc1s7iYu-34" target="0fWZHqDm3kcnZc1s7iYu-37" edge="1">
          <mxGeometry x="0.2941" relative="1" as="geometry">
            <mxPoint x="286" y="210" as="targetPoint" />
            <mxPoint as="offset" />
          </mxGeometry>
        </mxCell>
        <mxCell id="0fWZHqDm3kcnZc1s7iYu-35" value="Jeśli nie przekroczył" style="edgeStyle=orthogonalEdgeStyle;html=1;align=left;verticalAlign=bottom;endArrow=open;endSize=8;strokeColor=#ff0000;entryX=0.442;entryY=0.025;entryDx=0;entryDy=0;entryPerimeter=0;" parent="0fWZHqDm3kcnZc1s7iYu-1" source="0fWZHqDm3kcnZc1s7iYu-34" target="0fWZHqDm3kcnZc1s7iYu-43" edge="1">
          <mxGeometry x="-1" relative="1" as="geometry">
            <mxPoint x="546" y="190" as="targetPoint" />
            <Array as="points">
              <mxPoint x="506" y="190" />
              <mxPoint x="506" y="200" />
              <mxPoint x="549" y="200" />
            </Array>
          </mxGeometry>
        </mxCell>
        <mxCell id="0fWZHqDm3kcnZc1s7iYu-56" value="" style="edgeStyle=orthogonalEdgeStyle;html=1;verticalAlign=bottom;endArrow=open;endSize=8;strokeColor=#ff0000;entryX=1;entryY=0.5;entryDx=0;entryDy=0;" parent="0fWZHqDm3kcnZc1s7iYu-1" source="0fWZHqDm3kcnZc1s7iYu-55" target="0fWZHqDm3kcnZc1s7iYu-57" edge="1">
          <mxGeometry relative="1" as="geometry">
            <mxPoint x="536" y="750" as="targetPoint" />
          </mxGeometry>
        </mxCell>
        <mxCell id="0fWZHqDm3kcnZc1s7iYu-58" value="" style="edgeStyle=orthogonalEdgeStyle;html=1;verticalAlign=bottom;endArrow=open;endSize=8;strokeColor=#ff0000;exitX=0.5;exitY=1;exitDx=0;exitDy=0;entryX=0.5;entryY=0;entryDx=0;entryDy=0;" parent="0fWZHqDm3kcnZc1s7iYu-1" source="0fWZHqDm3kcnZc1s7iYu-51" target="0fWZHqDm3kcnZc1s7iYu-24" edge="1">
          <mxGeometry relative="1" as="geometry">
            <mxPoint x="216" y="870" as="targetPoint" />
            <Array as="points">
              <mxPoint x="776" y="390" />
              <mxPoint x="506" y="390" />
            </Array>
          </mxGeometry>
        </mxCell>
        <mxCell id="0fWZHqDm3kcnZc1s7iYu-60" value="Anulowano urlop" style="edgeStyle=orthogonalEdgeStyle;html=1;align=left;verticalAlign=bottom;endArrow=open;endSize=8;strokeColor=#ff0000;exitX=1;exitY=0.5;exitDx=0;exitDy=0;" parent="0fWZHqDm3kcnZc1s7iYu-1" source="0fWZHqDm3kcnZc1s7iYu-59" target="EO6jBVs2s-Wqm0ateVeM-1" edge="1">
          <mxGeometry x="-1" relative="1" as="geometry">
            <mxPoint x="906" y="710" as="targetPoint" />
            <Array as="points">
              <mxPoint x="806" y="755" />
              <mxPoint x="826" y="755" />
              <mxPoint x="826" y="780" />
              <mxPoint x="656" y="780" />
              <mxPoint x="656" y="755" />
            </Array>
          </mxGeometry>
        </mxCell>
        <mxCell id="0fWZHqDm3kcnZc1s7iYu-63" value="Mniej niż 1 dzień" style="edgeStyle=orthogonalEdgeStyle;html=1;align=left;verticalAlign=bottom;endArrow=open;endSize=8;strokeColor=#ff0000;entryX=0.5;entryY=0;entryDx=0;entryDy=0;" parent="0fWZHqDm3kcnZc1s7iYu-1" source="0fWZHqDm3kcnZc1s7iYu-62" target="EO6jBVs2s-Wqm0ateVeM-3" edge="1">
          <mxGeometry x="-1" relative="1" as="geometry">
            <mxPoint x="576" y="890" as="targetPoint" />
          </mxGeometry>
        </mxCell>
        <mxCell id="0fWZHqDm3kcnZc1s7iYu-64" value="Więcej niż 1 dzień" style="edgeStyle=orthogonalEdgeStyle;html=1;align=left;verticalAlign=top;endArrow=open;endSize=8;strokeColor=#ff0000;exitX=0;exitY=0.5;exitDx=0;exitDy=0;" parent="0fWZHqDm3kcnZc1s7iYu-1" source="0fWZHqDm3kcnZc1s7iYu-62" target="EO6jBVs2s-Wqm0ateVeM-5" edge="1">
          <mxGeometry x="0.3939" y="20" relative="1" as="geometry">
            <mxPoint x="336" y="910" as="targetPoint" />
            <Array as="points">
              <mxPoint x="421" y="840" />
              <mxPoint x="336" y="840" />
            </Array>
            <mxPoint as="offset" />
          </mxGeometry>
        </mxCell>
        <mxCell id="0fWZHqDm3kcnZc1s7iYu-61" value="Bez zmian" style="edgeStyle=orthogonalEdgeStyle;html=1;align=left;verticalAlign=top;endArrow=open;endSize=8;strokeColor=#ff0000;exitX=0;exitY=0.5;exitDx=0;exitDy=0;entryX=1;entryY=0.75;entryDx=0;entryDy=0;" parent="0fWZHqDm3kcnZc1s7iYu-1" source="0fWZHqDm3kcnZc1s7iYu-59" target="EO6jBVs2s-Wqm0ateVeM-6" edge="1">
          <mxGeometry x="-0.4545" y="-20" relative="1" as="geometry">
            <mxPoint x="286" y="960" as="targetPoint" />
            <Array as="points">
              <mxPoint x="676" y="710" />
              <mxPoint x="676" y="980" />
            </Array>
            <mxPoint as="offset" />
          </mxGeometry>
        </mxCell>
        <mxCell id="EO6jBVs2s-Wqm0ateVeM-17" value="Bank" style="swimlane;html=1;startSize=20;" parent="0fWZHqDm3kcnZc1s7iYu-1" vertex="1">
          <mxGeometry x="1406" y="20" width="260" height="1283" as="geometry" />
        </mxCell>
        <mxCell id="EO6jBVs2s-Wqm0ateVeM-30" value="Otrzymuje pieniądze " style="rounded=1;whiteSpace=wrap;html=1;arcSize=40;fontColor=#000000;fillColor=#ffffc0;strokeColor=#ff0000;" parent="EO6jBVs2s-Wqm0ateVeM-17" vertex="1">
          <mxGeometry x="80" y="550" width="120" height="40" as="geometry" />
        </mxCell>
        <mxCell id="EO6jBVs2s-Wqm0ateVeM-31" value="" style="edgeStyle=orthogonalEdgeStyle;html=1;verticalAlign=bottom;endArrow=open;endSize=8;strokeColor=#ff0000;" parent="EO6jBVs2s-Wqm0ateVeM-17" source="EO6jBVs2s-Wqm0ateVeM-30" edge="1">
          <mxGeometry relative="1" as="geometry">
            <mxPoint x="140" y="650" as="targetPoint" />
          </mxGeometry>
        </mxCell>
        <mxCell id="EO6jBVs2s-Wqm0ateVeM-32" value="Sprawdzenie w jakim banku konto posiada pracownik" style="rounded=1;whiteSpace=wrap;html=1;arcSize=40;fontColor=#000000;fillColor=#ffffc0;strokeColor=#ff0000;" parent="EO6jBVs2s-Wqm0ateVeM-17" vertex="1">
          <mxGeometry x="70" y="650" width="130" height="50" as="geometry" />
        </mxCell>
        <mxCell id="EO6jBVs2s-Wqm0ateVeM-33" value="" style="edgeStyle=orthogonalEdgeStyle;html=1;verticalAlign=bottom;endArrow=open;endSize=8;strokeColor=#ff0000;" parent="EO6jBVs2s-Wqm0ateVeM-17" source="EO6jBVs2s-Wqm0ateVeM-32" edge="1">
          <mxGeometry relative="1" as="geometry">
            <mxPoint x="140" y="750" as="targetPoint" />
          </mxGeometry>
        </mxCell>
        <mxCell id="EO6jBVs2s-Wqm0ateVeM-34" value="Condition" style="rhombus;whiteSpace=wrap;html=1;fillColor=#ffffc0;strokeColor=#ff0000;" parent="EO6jBVs2s-Wqm0ateVeM-17" vertex="1">
          <mxGeometry x="90" y="750" width="80" height="40" as="geometry" />
        </mxCell>
        <mxCell id="EO6jBVs2s-Wqm0ateVeM-16" value="" style="edgeStyle=orthogonalEdgeStyle;html=1;verticalAlign=bottom;endArrow=open;endSize=8;strokeColor=#ff0000;entryX=0;entryY=0.5;entryDx=0;entryDy=0;" parent="0fWZHqDm3kcnZc1s7iYu-1" source="EO6jBVs2s-Wqm0ateVeM-15" target="EO6jBVs2s-Wqm0ateVeM-20" edge="1">
          <mxGeometry relative="1" as="geometry">
            <mxPoint x="1066" y="150" as="targetPoint" />
          </mxGeometry>
        </mxCell>
        <mxCell id="EO6jBVs2s-Wqm0ateVeM-25" value="" style="edgeStyle=orthogonalEdgeStyle;html=1;verticalAlign=bottom;endArrow=open;endSize=8;strokeColor=#ff0000;entryX=0.425;entryY=0.025;entryDx=0;entryDy=0;entryPerimeter=0;" parent="0fWZHqDm3kcnZc1s7iYu-1" source="EO6jBVs2s-Wqm0ateVeM-24" target="EO6jBVs2s-Wqm0ateVeM-26" edge="1">
          <mxGeometry relative="1" as="geometry">
            <mxPoint x="1301" y="360" as="targetPoint" />
          </mxGeometry>
        </mxCell>
        <mxCell id="EO6jBVs2s-Wqm0ateVeM-29" value="" style="edgeStyle=orthogonalEdgeStyle;html=1;verticalAlign=bottom;endArrow=open;endSize=8;strokeColor=#ff0000;entryX=0.5;entryY=0;entryDx=0;entryDy=0;" parent="0fWZHqDm3kcnZc1s7iYu-1" source="EO6jBVs2s-Wqm0ateVeM-28" target="EO6jBVs2s-Wqm0ateVeM-30" edge="1">
          <mxGeometry relative="1" as="geometry">
            <mxPoint x="1086" y="590" as="targetPoint" />
          </mxGeometry>
        </mxCell>
        <mxCell id="EO6jBVs2s-Wqm0ateVeM-36" value="Jeśli w innym banku" style="edgeStyle=orthogonalEdgeStyle;html=1;align=left;verticalAlign=top;endArrow=open;endSize=8;strokeColor=#ff0000;exitX=0.075;exitY=0.7;exitDx=0;exitDy=0;exitPerimeter=0;entryX=0.5;entryY=0;entryDx=0;entryDy=0;" parent="0fWZHqDm3kcnZc1s7iYu-1" source="EO6jBVs2s-Wqm0ateVeM-34" target="EO6jBVs2s-Wqm0ateVeM-39" edge="1">
          <mxGeometry x="-0.6364" y="-100" relative="1" as="geometry">
            <mxPoint x="1486" y="870" as="targetPoint" />
            <Array as="points">
              <mxPoint x="1486" y="798" />
              <mxPoint x="1486" y="1073" />
              <mxPoint x="66" y="1073" />
            </Array>
            <mxPoint y="-8" as="offset" />
          </mxGeometry>
        </mxCell>
        <mxCell id="EO6jBVs2s-Wqm0ateVeM-35" value="Jeśli w tym samym co pracodawca" style="edgeStyle=orthogonalEdgeStyle;html=1;align=left;verticalAlign=bottom;endArrow=open;endSize=8;strokeColor=#ff0000;entryX=1;entryY=0.75;entryDx=0;entryDy=0;exitX=1;exitY=0.5;exitDx=0;exitDy=0;" parent="0fWZHqDm3kcnZc1s7iYu-1" source="EO6jBVs2s-Wqm0ateVeM-34" target="EO6jBVs2s-Wqm0ateVeM-37" edge="1">
          <mxGeometry x="-1" relative="1" as="geometry">
            <mxPoint x="1606" y="830" as="targetPoint" />
            <Array as="points">
              <mxPoint x="1586" y="790" />
              <mxPoint x="1586" y="1119" />
              <mxPoint x="894" y="1119" />
              <mxPoint x="894" y="1130" />
            </Array>
          </mxGeometry>
        </mxCell>
        <mxCell id="EO6jBVs2s-Wqm0ateVeM-10" value="" style="edgeStyle=orthogonalEdgeStyle;html=1;verticalAlign=bottom;endArrow=open;endSize=8;strokeColor=#ff0000;exitX=0;exitY=0.5;exitDx=0;exitDy=0;" parent="1" source="0fWZHqDm3kcnZc1s7iYu-57" edge="1">
          <mxGeometry relative="1" as="geometry">
            <mxPoint x="-180" y="820" as="targetPoint" />
            <mxPoint x="-50" y="1030" as="sourcePoint" />
            <Array as="points">
              <mxPoint x="-120" y="820" />
              <mxPoint x="-120" y="820" />
            </Array>
          </mxGeometry>
        </mxCell>
        <mxCell id="EO6jBVs2s-Wqm0ateVeM-12" value="" style="edgeStyle=orthogonalEdgeStyle;html=1;verticalAlign=bottom;endArrow=open;endSize=8;strokeColor=#ff0000;exitX=0;exitY=0.5;exitDx=0;exitDy=0;" parent="1" source="EO6jBVs2s-Wqm0ateVeM-5" edge="1">
          <mxGeometry relative="1" as="geometry">
            <mxPoint x="-180" y="910" as="targetPoint" />
            <mxPoint x="-110" y="830" as="sourcePoint" />
            <Array as="points">
              <mxPoint x="-130" y="910" />
              <mxPoint x="-180" y="910" />
            </Array>
          </mxGeometry>
        </mxCell>
      </root>
    </mxGraphModel>
  </diagram>
</mxfile>
